<?xml version="1.0" encoding="iso-8859-1"?>
<!-- Uploaded to: SVG Repo, www.svgrepo.com, Generator: SVG Repo Mixer Tools -->
<!DOCTYPE svg PUBLIC "-//W3C//DTD SVG 1.1//EN" "http://www.w3.org/Graphics/SVG/1.1/DTD/svg11.dtd">
<svg fill="#000000" version="1.1" id="Capa_1" xmlns="http://www.w3.org/2000/svg" xmlns:xlink="http://www.w3.org/1999/xlink" 
	 width="800px" height="800px" viewBox="0 0 201.132 201.132"
	 xml:space="preserve">
<g>
	<path d="M186.326,111.737c-0.644,3.357-1.607,6.721-4.562,9.776c-1.632,1.679-3.098,2.223-4.558,2.956
		c-1.395,0.804-3.015,1.336-4.651,1.797c-3.274,0.851-7.011,1.246-10.427-0.154c-7.028-2.742-9.978-9.528-10.704-15.475l0.709-0.201
		c2.589,5.268,6.608,10.102,11.396,10.994c2.358,0.474,4.823-0.047,7.235-0.893c2.093-0.874,5.42-2.382,6.425-3.67
		c1.17-1.336,2.264-3.878,2.837-6.312c0.544-2.507,0.774-5.184,0.544-7.858c-0.159-5.296-3.753-10.164-6.957-15.356l-0.147-0.181
		l-0.023-0.115c-2.896-9.268-7.034-18.181-11.728-26.643c-4.764-8.263-9.304-17.342-15.38-23.342l-0.78-0.774l-0.26-1.126
		c-1.229-5.175-1.915-10.241-2.211-15.531c-0.035-3.546-0.023-7.179,0.698-10.905c-3.901,0.712-7.779,1.641-11.538,2.837
		c-5.42,1.906-10.651,4.51-14.766,8.825l-0.603-0.399c2.825-5.544,8.051-9.702,13.506-12.625c5.521-3.05,11.414-4.897,17.727-6.242
		L153.321,0l-1.638,5.781c-1.063,3.789-1.171,8.697-0.769,13.438c0.236,4.551,0.887,9.248,1.59,13.763
		c6.656,7.971,10.144,16.645,13.477,25.487c3.287,9.28,6.225,18.521,9.706,27.642c1.809,2.326,3.635,4.596,5.567,6.836
		c2.093,2.536,3.588,5.592,4.422,8.807C186.557,104.964,186.817,108.345,186.326,111.737z M126.362,92.123
		c-1.644-2.373-3.275-5.127-4.28-7.439l-2.128-4.879l-4.917,2.615c-4.989,2.633-9.922,6.555-12.699,11.893
		c-2.87,5.237-3.94,11.071-3.91,16.526c0.156,10.982,3.546,20.966,8.038,30.115c2.329,4.593,4.912,8.896,8.181,13.075
		c1.644,2.051,2.991,3.581,4.273,5.579c1.265,1.922,2.382,3.931,3.316,6.053c3.658,8.512,4.102,18.654,1.466,27.952l0.957,0.378
		c3.818-9.209,4.729-19.812,1.809-29.854c-1.389-4.972-4.243-9.735-7.116-13.72c-2.529-3.771-4.74-8.062-6.525-12.4
		c-3.582-8.659-5.816-18.069-5.007-26.799c0.627-7.123,3.541-12.88,8.405-17.012c0.964,1.247,1.951,2.444,3.044,3.656
		c2.436,2.503,5.019,4.915,8.033,6.782c5.84,3.901,12.98,6.124,19.683,5.355l0.13-1.028c-6.152-2.199-11.171-5.574-15.25-9.907
		C129.908,96.831,127.963,94.629,126.362,92.123z M91.086,193.448c-3.638-1.005-7.474-2.288-11.476-3.795
		c-3.91-1.69-8.13-3.162-12.232-5.249c-4.164-1.944-8.384-4.138-12.457-6.69c-4.019-2.554-8.122-5.498-11.482-8.796
		c-3.487-2.896-7.034-7.56-9.738-11.106c-2.932-3.989-5.456-8.121-7.749-12.229c-4.424-8.258-7.226-16.657-8.207-24.087
		c-1.005-7.441-0.249-13.79,0.946-18.034c1.203-4.276,2.542-6.419,2.542-6.419l-0.733-0.49c0,0-1.623,2.154-3.239,6.437
		c-1.64,4.279-2.994,10.841-2.645,18.773c0.139,3.978,0.872,8.215,1.895,12.654c1.138,4.422,2.816,8.896,4.788,13.447
		c2.131,4.469,4.504,8.996,7.294,13.37c3.136,4.663,5.601,8.452,9.632,12.554c3.656,4.203,7.734,7.625,11.978,10.817
		c4.211,3.245,8.774,5.828,13.279,8.086c9.126,4.314,18.314,6.372,26.14,7.554c15.782,2.068,26.22-0.13,26.22-0.13l-0.023-0.887
		C115.829,199.211,105.502,197.704,91.086,193.448z M102.919,42.108c1.081,4.014,2.275,6.555,2.275,6.555s0.662-2.825,1.017-6.844
		c0.166-4.031,0.65-9.2,1.064-14.278c0.425-2.426,0.591-5.024,1.205-7.214c0.42-1.034,0.627-2.143,0.881-3.203
		c0.154-1.117,0.804-1.809,1.146-2.687c0.733-1.726,1.75-2.97,2.507-3.795c0.78-0.836,1.412-1.265,1.412-1.265
		s-0.668-0.115-1.95,0.248c-1.117,0.473-3.15,1.052-4.563,2.767c-1.696,1.572-3.094,3.727-4.265,6.289
		c-0.99,2.553-1.463,5.378-2.207,8.195c0.023,2.813,0.047,5.627,0.085,8.26C101.5,37.752,102.574,40.069,102.919,42.108z
		 M84.652,49.083c1.094,4.02,2.282,6.562,2.282,6.562s0.688-2.829,1.005-6.845c0.168-4.052,0.653-9.203,1.096-14.304
		c0.423-2.42,0.58-5.006,1.173-7.208c0.44-1.04,0.642-2.143,0.901-3.183c0.145-1.138,0.816-1.829,1.15-2.713
		c0.721-1.72,1.75-2.964,2.5-3.789c0.774-0.827,1.416-1.259,1.416-1.259s-0.671-0.121-1.948,0.242
		c-1.114,0.473-3.153,1.046-4.59,2.784c-1.682,1.548-3.097,3.718-4.252,6.271c-0.987,2.565-1.46,5.378-2.205,8.195
		c0.042,2.814,0.08,5.636,0.104,8.26C83.26,44.718,84.3,47.05,84.652,49.083z M64,61.005c1.102,4.013,2.27,6.555,2.27,6.555
		s0.683-2.825,1.017-6.845c0.163-4.043,0.659-9.206,1.079-14.295c0.429-2.421,0.58-5.024,1.203-7.217
		c0.432-1.035,0.629-2.143,0.884-3.195c0.139-1.126,0.807-1.809,1.144-2.692c0.733-1.726,1.75-2.967,2.512-3.81
		c0.774-0.815,1.41-1.238,1.41-1.238s-0.665-0.127-1.942,0.233c-1.132,0.473-3.153,1.055-4.563,2.781
		c-1.72,1.561-3.118,3.721-4.279,6.274c-0.999,2.556-1.46,5.382-2.205,8.201c0.027,2.816,0.062,5.63,0.086,8.263
		C62.596,56.649,63.648,58.966,64,61.005z M42.216,80.254c1.102,4.02,2.27,6.561,2.27,6.561s0.686-2.825,1.017-6.845
		c0.177-4.031,0.662-9.2,1.084-14.304c0.429-2.403,0.574-5.003,1.197-7.196c0.438-1.046,0.629-2.143,0.89-3.189
		c0.153-1.132,0.812-1.818,1.146-2.698c0.724-1.72,1.741-2.967,2.509-3.803c0.777-0.816,1.418-1.245,1.418-1.245
		s-0.674-0.13-1.951,0.24c-1.126,0.473-3.153,1.049-4.563,2.766c-1.708,1.569-3.124,3.736-4.279,6.289
		c-1.005,2.557-1.457,5.382-2.202,8.195c0.029,2.813,0.059,5.63,0.083,8.264C40.818,75.895,41.864,78.232,42.216,80.254z
		 M26.032,100.034c1.478,3.913,2.905,6.312,2.905,6.312s0.399-2.884,0.346-6.906c-0.225-4.043-0.236-9.218-0.322-14.352
		c0.177-2.444,0.097-5.03,0.479-7.279c0.325-1.079,0.417-2.193,0.588-3.269c0.035-1.138,0.624-1.889,0.884-2.805
		c0.562-1.791,1.445-3.127,2.122-4.011c0.704-0.904,1.303-1.395,1.303-1.395s-0.697-0.042-1.906,0.432
		c-1.084,0.573-3.047,1.356-4.273,3.215c-1.551,1.705-2.742,3.999-3.656,6.656c-0.745,2.645-0.934,5.497-1.398,8.39
		c0.319,2.79,0.624,5.58,0.901,8.195C24.203,95.847,25.488,98.048,26.032,100.034z"/>
</g>
</svg>