<?xml version="1.0" encoding="UTF-8"?>
<!DOCTYPE svg PUBLIC "-//W3C//DTD SVG 1.1//EN" "http://www.w3.org/Graphics/SVG/1.1/DTD/svg11.dtd">
<svg xmlns="http://www.w3.org/2000/svg" version="1.1" width="512px" height="307px" style="shape-rendering:geometricPrecision; text-rendering:geometricPrecision; image-rendering:optimizeQuality; fill-rule:evenodd; clip-rule:evenodd" xmlns:xlink="http://www.w3.org/1999/xlink">
<g><path style="opacity:0.983" fill="#242e3d" d="M 429.5,0.5 C 446.057,0.146863 461.724,3.64686 476.5,11C 477.701,11.9025 478.535,13.0692 479,14.5C 479.667,20.1667 479.667,25.8333 479,31.5C 477.806,32.4303 476.473,33.0969 475,33.5C 457.236,24.7711 438.736,22.6044 419.5,27C 407.247,32.6175 404.08,41.4508 410,53.5C 413.91,57.2084 418.41,60.0417 423.5,62C 436.489,66.3297 449.489,70.663 462.5,75C 485.785,86.4993 493.285,104.666 485,129.5C 478.087,143.738 466.92,152.904 451.5,157C 429.027,162.018 407.027,160.351 385.5,152C 378.091,149.186 375.091,143.852 376.5,136C 374.372,128.265 377.039,125.265 384.5,127C 404.534,136.256 425.201,138.256 446.5,133C 458.062,127.307 461.562,118.473 457,106.5C 452.567,101.365 447.067,97.8646 440.5,96C 425.362,91.885 410.695,86.5517 396.5,80C 381.615,68.7292 375.781,53.8958 379,35.5C 383.252,21.5798 392.085,11.7464 405.5,6C 413.425,3.18251 421.425,1.34917 429.5,0.5 Z"/></g>
<g><path style="opacity:0.985" fill="#242e3d" d="M 72.5,1.5 C 86.6929,0.672304 100.693,1.83897 114.5,5C 129.937,10.105 139.437,20.605 143,36.5C 143.995,41.4535 144.662,46.4535 145,51.5C 145.333,74.1667 145.667,96.8333 146,119.5C 147.145,126.268 149.478,132.601 153,138.5C 153.667,140.833 153.667,143.167 153,145.5C 148.107,149.391 142.94,152.891 137.5,156C 133.579,156.959 130.412,155.792 128,152.5C 124.833,147.5 121.667,142.5 118.5,137.5C 99.0568,158.029 75.7235,164.195 48.5,156C 29.1778,146.2 20.6778,130.366 23,108.5C 27.7796,84.0582 42.6129,70.2249 67.5,67C 84.0088,65.8135 100.342,66.9801 116.5,70.5C 121.171,35.6703 106.171,20.837 71.5,26C 60.8515,27.9121 50.5182,30.9121 40.5,35C 38.0982,35.8141 35.7649,35.6474 33.5,34.5C 32.3791,28.8862 32.2124,23.2195 33,17.5C 33.7845,15.714 34.9512,14.214 36.5,13C 48.0245,7.29316 60.0245,3.45983 72.5,1.5 Z M 76.5,87.5 C 89.9597,86.9978 103.293,87.9978 116.5,90.5C 119.315,119.52 106.149,134.853 77,136.5C 58.4927,134.978 50.826,124.978 54,106.5C 57.3937,95.2708 64.8937,88.9375 76.5,87.5 Z"/></g>
<g><path style="opacity:0.984" fill="#242e3d" d="M 161.5,5.5 C 169.84,5.3336 178.173,5.50027 186.5,6C 187.931,6.46524 189.097,7.29857 190,8.5C 199.857,46.2664 209.857,83.9331 220,121.5C 228.667,84.8333 237.333,48.1667 246,11.5C 246.685,8.94273 248.185,7.1094 250.5,6C 259.27,5.06 267.936,5.39333 276.5,7C 277.701,7.90252 278.535,9.06919 279,10.5C 287.844,48.2081 296.844,85.8747 306,123.5C 315.688,85.4136 325.688,47.4136 336,9.5C 336.5,7.66667 337.667,6.5 339.5,6C 347.5,5.33333 355.5,5.33333 363.5,6C 364.894,6.95603 365.561,8.28937 365.5,10C 351.266,57.7022 336.432,105.202 321,152.5C 320.097,153.701 318.931,154.535 317.5,155C 309.167,155.667 300.833,155.667 292.5,155C 291.667,154.167 290.833,153.333 290,152.5C 280.511,115.542 271.177,78.5424 262,41.5C 253.599,79.1042 244.266,116.438 234,153.5C 233.25,154.126 232.416,154.626 231.5,155C 227.5,155.167 223.5,155.333 219.5,155.5C 214.722,155.609 210.056,155.109 205.5,154C 202.383,149.672 200.216,144.838 199,139.5C 185.758,96.4422 172.925,53.2755 160.5,10C 160.605,8.40846 160.939,6.90846 161.5,5.5 Z"/></g>
<g><path style="opacity:0.948" fill="#ff9900" d="M 463.5,189.5 C 477.092,188.844 490.425,190.344 503.5,194C 505.286,194.785 506.786,195.951 508,197.5C 510.008,230.319 499.508,258.486 476.5,282C 474.541,282.931 472.541,283.764 470.5,284.5C 468.728,283.73 467.728,282.397 467.5,280.5C 473.561,265.484 478.728,250.15 483,234.5C 484.987,228.041 484.821,221.708 482.5,215.5C 478.933,212.921 474.933,211.421 470.5,211C 453.254,210.108 436.088,210.941 419,213.5C 417.5,213.333 416,213.167 414.5,213C 412.876,209.794 413.542,207.128 416.5,205C 431.013,196.107 446.68,190.94 463.5,189.5 Z"/></g>
<g><path style="opacity:0.97" fill="#ff9900" d="M 4.5,199.5 C 6.92668,199.523 9.26001,200.023 11.5,201C 130.605,267.252 256.271,283.586 388.5,250C 410.26,243.858 431.593,236.525 452.5,228C 462.063,226.556 465.563,230.39 463,239.5C 443.678,254.587 422.512,266.753 399.5,276C 296.486,316.077 194.486,313.744 93.5,269C 60.5669,253.045 30.5669,232.879 3.5,208.5C 0.661045,205.055 0.994378,202.055 4.5,199.5 Z"/></g>
</svg>
