<?xml version="1.0" encoding="UTF-8"?>
<svg version="1.1" xmlns="http://www.w3.org/2000/svg" width="8001" height="1808">
<path d="M0 0 C1.36777074 0.17922913 2.73561173 0.3579228 4.10351562 0.53613281 C64.39079922 8.48437631 121.71189445 26.79177689 176 54 C176.97195313 54.4846875 177.94390625 54.969375 178.9453125 55.46875 C210.63980429 71.36114474 241.30133747 91.22137944 268.1015625 114.5 C270.81213825 116.83796291 273.57696791 119.08063862 276.375 121.3125 C286.12879292 129.24997078 295.1512551 138.07690561 304 147 C298.79410739 154.49224532 292.52862748 160.71046534 286.06640625 167.09375 C284.90296333 168.25090693 283.74004443 169.40859095 282.57762146 170.56677246 C279.531751 173.599419 276.48035058 176.6264327 273.42724609 179.65179443 C268.54458341 184.4911473 263.66869872 189.33730395 258.79615593 194.18684387 C257.10648571 195.8664102 255.41338131 197.54245379 253.71986389 199.21813965 C248.87258633 204.0276866 244.14236908 208.8717706 239.704422 214.06726074 C236.24628875 217.98863109 232.49238538 221.62869226 228.78515625 225.3125 C227.92941513 226.16682617 227.07367401 227.02115234 226.19200134 227.90136719 C223.48452619 230.60328862 220.77357746 233.30169359 218.0625 236 C216.21526325 237.84221577 214.36825573 239.68466143 212.52148438 241.52734375 C208.01696997 246.02089061 203.50960595 250.5115632 199 255 C197.88249297 254.04563526 196.76548296 253.09068852 195.64868164 252.13549805 C195.02659317 251.60377487 194.4045047 251.0720517 193.76356506 250.5242157 C191.61243367 248.6650338 189.52475996 246.74293542 187.4375 244.8125 C181.77223824 239.69659696 175.80428121 235.0219256 169.76269531 230.36425781 C168.08104976 229.06272937 166.41027626 227.74852335 164.7421875 226.4296875 C112.60733284 185.40829403 48.45123191 160.74408087 -17 152 C-17.68707031 151.9067746 -18.37414062 151.81354919 -19.08203125 151.71749878 C-33.98163884 149.76529869 -48.88108593 149.65692256 -63.88720703 149.68432617 C-66.61491481 149.68893638 -69.34217436 149.68209723 -72.06982422 149.66381836 C-96.08124324 149.50470585 -119.85384481 150.88578584 -143.4375 155.6875 C-144.71061035 155.94168701 -145.9837207 156.19587402 -147.29541016 156.45776367 C-200.53079767 167.31018049 -251.39654458 189.50085622 -295 222 C-295.53786133 222.39896484 -296.07572266 222.79792969 -296.62988281 223.20898438 C-313.68455255 235.91558295 -329.31861623 250.25806468 -344.375 265.25 C-345.12426758 265.99459473 -345.87353516 266.73918945 -346.64550781 267.50634766 C-350.7514811 271.62421966 -354.68589611 275.83418709 -358.48095703 280.24023438 C-360.35658469 282.41309265 -362.3025324 284.5165213 -364.25 286.625 C-412.14435956 339.85893343 -441.73725193 408.17489003 -453.75 478.25 C-453.94875732 479.39557373 -454.14751465 480.54114746 -454.35229492 481.72143555 C-457.68439716 502.08967819 -458.37466024 522.39021901 -458.3125 543 C-458.31067719 544.25557709 -458.30885437 545.51115417 -458.30697632 546.80477905 C-458.26159292 565.37989443 -457.84603961 583.6131958 -455 602 C-454.82839355 603.14952148 -454.65678711 604.29904297 -454.47998047 605.48339844 C-446.41233257 658.2151024 -427.51843473 708.91905806 -399 754 C-398.4438501 754.88002686 -398.4438501 754.88002686 -397.87646484 755.77783203 C-386.99801395 772.83686622 -374.55907201 789.33742948 -360.703125 804.0859375 C-358.65124709 806.29793305 -356.66751183 808.53217617 -354.69921875 810.81640625 C-350.83540634 815.25197477 -346.7319495 819.41556778 -342.5625 823.5625 C-341.49418945 824.63661133 -341.49418945 824.63661133 -340.40429688 825.73242188 C-335.76727317 830.36102229 -330.99063913 834.75619184 -326 839 C-325.36296143 839.54374268 -324.72592285 840.08748535 -324.06958008 840.64770508 C-302.59274961 858.84873007 -279.50971887 874.21055255 -255 888 C-254.06220703 888.53488037 -254.06220703 888.53488037 -253.10546875 889.08056641 C-214.61072204 910.96325086 -169.90535431 924.67954395 -126.25 931.25 C-125.24735107 931.40106201 -124.24470215 931.55212402 -123.21166992 931.70776367 C-104.66606679 934.32175162 -86.21685107 935.38106058 -67.5 935.3125 C-65.93626648 935.30976578 -65.93626648 935.30976578 -64.34094238 935.30697632 C-47.05794055 935.25636506 -30.12009281 934.53952173 -13 932 C-11.26411621 931.74259033 -11.26411621 931.74259033 -9.49316406 931.47998047 C28.76131281 925.5886015 66.04776216 914.65381515 101 898 C102.49684326 897.29472168 102.49684326 897.29472168 104.02392578 896.57519531 C137.53566267 880.68791065 167.64171165 859.83693377 195.4140625 835.38183594 C196.72770587 834.23725135 198.0641861 833.11893683 199.40625 832.0078125 C204.12087763 828.09766498 207.87603901 823.70592441 211.67578125 818.90625 C213.15247962 817.05975657 214.66733749 815.24267129 216.23046875 813.46875 C229.70944345 798.115814 240.7285061 780.16706758 250 762 C250.4738916 761.07670898 250.9477832 760.15341797 251.43603516 759.20214844 C264.40718581 733.69291284 273.69926334 707.03410776 279.6875 679.0625 C279.97318848 677.74366821 279.97318848 677.74366821 280.26464844 676.39819336 C282.3941322 665.97840259 283.55473986 655.59857434 285 645 C168.51 645 52.02 645 -68 645 C-68 595.17 -68 545.34 -68 494 C97.33 494 262.66 494 433 494 C435.25242881 505.26214405 435.25242881 505.26214405 435.81640625 510.57421875 C435.94080078 511.73759766 436.06519531 512.90097656 436.19335938 514.09960938 C436.31517578 515.28361328 436.43699219 516.46761719 436.5625 517.6875 C436.75102539 519.43450195 436.75102539 519.43450195 436.94335938 521.21679688 C438.57023896 536.67641175 439.17177898 551.97016454 439.203125 567.5 C439.20595238 568.462547 439.20877975 569.42509399 439.21169281 570.41680908 C439.22658859 575.52299256 439.23587548 580.62914856 439.24023438 585.73535156 C439.24459461 589.8832287 439.25840472 594.03089497 439.28125 598.17871094 C439.41138941 622.31217859 439.14955199 646.03850455 436 670 C435.88640137 670.89184998 435.77280273 671.78369995 435.65576172 672.70257568 C435.00548423 677.71827516 434.23859135 682.70439832 433.375 687.6875 C433.25128021 688.41538727 433.12756042 689.14327454 433.00009155 689.89321899 C423.41665112 745.78281686 403.59072917 799.07870369 375 848 C374.56236328 848.75104004 374.12472656 849.50208008 373.67382812 850.27587891 C360.68130645 872.49309096 345.50055599 893.26875262 329 913 C328.29955566 913.83797119 328.29955566 913.83797119 327.58496094 914.69287109 C321.96544332 921.39419162 316.2871615 927.89289152 310.0078125 933.9921875 C308.07981582 935.92018418 306.31932966 937.91631831 304.5625 940 C301.15034743 943.98216414 297.33517669 947.38794607 293.40234375 950.84765625 C291.36804531 952.67025534 289.45565472 954.53420625 287.5625 956.5 C283.97422829 960.14668543 280.04389529 963.29878085 276.05859375 966.5 C273.95146849 968.22229906 271.88909197 969.95428686 269.84765625 971.75 C196.58499009 1036.1876721 99.37792546 1074.60697491 3.0625 1085.3125 C2.33426025 1085.39390228 1.60602051 1085.47530457 0.85571289 1085.55917358 C-19.05300417 1087.74830755 -38.85311943 1088.20562102 -58.875 1088.1875 C-60.10888458 1088.18689575 -61.34276917 1088.1862915 -62.61404419 1088.18566895 C-150.36577756 1088.0693842 -238.4927539 1072.30970129 -316.84326172 1031.12109375 C-319.4153855 1029.78407853 -322.00629996 1028.48684008 -324.59765625 1027.1875 C-347.54755187 1015.59082617 -369.22952226 1002.14835937 -390 987 C-390.70801758 986.4848584 -391.41603516 985.9697168 -392.14550781 985.43896484 C-402.37167184 977.96489141 -412.26177443 970.09726077 -422 962 C-422.58990723 961.51063965 -423.17981445 961.0212793 -423.78759766 960.51708984 C-440.10282682 946.92489864 -455.1058486 931.98772076 -470.125 917 C-470.85554596 916.27213287 -471.58609192 915.54426575 -472.33877563 914.79434204 C-474.46063304 912.67838175 -476.57860764 910.55861345 -478.6953125 908.4375 C-479.32709915 907.80768723 -479.9588858 907.17787445 -480.6098175 906.52897644 C-484.9365233 902.18011984 -489.00057249 897.6500045 -493 893 C-493.94938669 891.91697351 -494.89970494 890.83476178 -495.8515625 889.75390625 C-503.65208425 880.81021657 -510.89857479 871.50488189 -518 862 C-518.48887695 861.34854004 -518.97775391 860.69708008 -519.48144531 860.02587891 C-534.21525828 840.3556862 -547.27805646 819.5979855 -559 798 C-559.67434082 796.7620166 -559.67434082 796.7620166 -560.36230469 795.49902344 C-598.20615959 725.62753235 -620.85652736 644.94468612 -621.23828125 565.1953125 C-621.24312531 564.41421993 -621.24796936 563.63312737 -621.25296021 562.82836533 C-621.28909242 556.92724903 -621.30525236 551.02621691 -621.3125 545.125 C-621.31379787 544.25987793 -621.31509575 543.39475586 -621.31643295 542.50341797 C-621.34606827 516.46722426 -620.93593049 490.78901278 -617 465 C-616.81276367 463.71206543 -616.62552734 462.42413086 -616.43261719 461.09716797 C-615.18689826 452.68157283 -613.69242105 444.33669814 -612 436 C-611.62319092 434.14036621 -611.62319092 434.14036621 -611.23876953 432.24316406 C-603.30720881 393.84333611 -590.8767134 356.83316288 -575 321 C-574.64728027 320.20062012 -574.29456055 319.40124023 -573.93115234 318.57763672 C-552.21994853 269.78950643 -520.83335345 225.36575479 -485 186 C-484.2275293 185.14269287 -483.45505859 184.28538574 -482.65917969 183.40209961 C-475.8565793 175.89930816 -468.81996561 168.66463077 -461.64672852 161.51635742 C-459.80041754 159.67545292 -457.95957727 157.82919728 -456.11914062 155.98242188 C-450.78796009 150.64823968 -445.4669094 145.36588137 -439.7199707 140.47485352 C-436.78414782 137.95742186 -434.00037174 135.27790184 -431.1875 132.625 C-425.32606988 127.14713034 -419.295637 121.97713327 -413 117 C-411.94633138 116.15399843 -410.89295883 115.30762803 -409.83984375 114.4609375 C-389.39727631 98.11463485 -367.72610944 83.00232472 -345 70 C-344.33532715 69.61956543 -343.6706543 69.23913086 -342.98583984 68.84716797 C-337.6918677 65.8338277 -332.35620501 62.90106015 -327 60 C-325.69264893 59.2898877 -325.69264893 59.2898877 -324.35888672 58.56542969 C-292.77558004 41.49793919 -259.40874703 28.2047296 -225 18 C-223.99533691 17.7014209 -222.99067383 17.4028418 -221.95556641 17.09521484 C-194.28734334 8.99644481 -165.61119646 3.45204214 -137 0 C-135.81905762 -0.14953125 -134.63811523 -0.2990625 -133.42138672 -0.453125 C-90.15489791 -5.69823298 -43.19426538 -5.89842451 0 0 Z " fill="#5F6368" transform="translate(702,360)"/>
<path d="M0 0 C0.91410645 0.16097168 1.82821289 0.32194336 2.77001953 0.48779297 C46.99164306 8.43714715 89.48426668 28.00198288 123 58 C123.85948242 58.76691162 123.85948242 58.76691162 124.73632812 59.54931641 C126.49834243 61.12903669 128.25138349 62.71796851 130 64.3125 C130.52819336 64.79203125 131.05638672 65.2715625 131.60058594 65.765625 C134.17069516 68.14309951 136.43347654 70.50981775 138.5625 73.29296875 C140.97333125 76.5124765 140.97333125 76.5124765 146 77 C146 58.52 146 40.04 146 21 C194.51 21 243.02 21 293 21 C293.15671039 98.3406051 293.15671039 98.3406051 293.20376587 122.28143311 C293.20628467 123.56217208 293.20628467 123.56217208 293.20885435 124.86878457 C293.26538363 153.63104466 293.31909391 182.39330929 293.37069702 211.15557861 C293.37238287 212.09482743 293.37406872 213.03407625 293.37580566 214.00178715 C293.41243516 234.41789383 293.44860867 254.83400129 293.48431293 275.2501096 C293.50182698 285.26325681 293.51944171 295.27640384 293.53710938 305.28955078 C293.53886574 306.28593929 293.5406221 307.2823278 293.54243168 308.3089099 C293.5993303 340.56091884 293.66286778 372.81291051 293.72987579 405.0648999 C293.79874329 438.22886568 293.86085768 471.39283749 293.91456608 504.55683144 C293.92216826 509.24911261 293.92984703 513.94139365 293.93757248 518.63367462 C293.93909048 519.55711445 293.94060847 520.48055428 293.94217247 521.43197713 C293.96673037 536.25172101 293.99833348 551.07144177 294.03262141 565.89116598 C294.06700333 580.81728588 294.09384357 595.74340466 294.11317255 610.66955176 C294.12485741 619.5197268 294.14213745 628.36984781 294.16775701 637.21999371 C294.18436421 643.15499053 294.19333929 649.08996935 294.19648318 655.02498844 C294.19847413 658.39188184 294.20459969 661.75861525 294.21781154 665.12549302 C294.30451521 688.06072526 293.58767638 711.07498156 289.875 733.75 C289.77118011 734.3957901 289.66736023 735.0415802 289.56039429 735.7069397 C276.20890384 817.98563881 234.74729582 899.79052522 167 950 C166.40461426 950.44730469 165.80922852 950.89460938 165.19580078 951.35546875 C112.22138737 991.10538935 44.20107975 1014.10799796 -21.99609375 1014.16796875 C-23.96014915 1014.17296135 -23.96014915 1014.17296135 -25.96388245 1014.17805481 C-28.72291894 1014.18399605 -31.48192437 1014.18590015 -34.2409668 1014.18530273 C-37.02260904 1014.18522188 -39.80408518 1014.19210724 -42.58569336 1014.20581055 C-58.81821656 1014.28449817 -74.87830017 1014.08545465 -91 1012 C-92.71908569 1011.78089966 -92.71908569 1011.78089966 -94.47290039 1011.55737305 C-97.26316239 1011.16769971 -100.03633866 1010.72920313 -102.8125 1010.25 C-103.8020166 1010.08008545 -104.7915332 1009.9101709 -105.81103516 1009.73510742 C-133.31123022 1004.82885717 -159.91277818 996.30194075 -185 984 C-186.45937988 983.2886792 -186.45937988 983.2886792 -187.94824219 982.56298828 C-208.0273856 972.68753406 -226.58221527 961.04891279 -244 947 C-244.95003906 946.24203125 -245.90007813 945.4840625 -246.87890625 944.703125 C-252.24552915 940.37399944 -257.43973123 935.89073867 -262.53515625 931.24609375 C-264.17892647 929.74820488 -265.83265156 928.26116833 -267.49609375 926.78515625 C-276.22862723 919.03350017 -284.44875599 910.90859573 -292 902 C-292.80953125 901.06800781 -293.6190625 900.13601563 -294.453125 899.17578125 C-352 832.60317731 -352 832.60317731 -352 805 C-351.05930664 804.61183105 -351.05930664 804.61183105 -350.09960938 804.21582031 C-328.2700506 795.20397199 -306.47054909 786.12031375 -284.67271423 777.03205872 C-276.94404244 773.80987584 -269.21439897 770.59003122 -261.484375 767.37109375 C-258.19730901 766.00213385 -254.91025333 764.63314917 -251.62319946 763.26416016 C-249.51515318 762.38628042 -247.40706062 761.50851179 -245.29891968 760.63085938 C-242.36450763 759.4091822 -239.43028133 758.18705991 -236.49609375 756.96484375 C-235.63469788 756.60635849 -234.773302 756.24787323 -233.88580322 755.87852478 C-233.07842712 755.54212479 -232.27105103 755.20572479 -231.43920898 754.85913086 C-230.68171356 754.54499237 -229.92421814 754.23085388 -229.14376831 753.90719604 C-227.75401493 753.31908269 -226.37140035 752.71368574 -224.99807739 752.08816528 C-221.65885575 750.57235952 -219.76075479 750 -216 750 C-215.59442871 750.89585815 -215.59442871 750.89585815 -215.18066406 751.80981445 C-203.34905774 777.74166075 -188.63050007 799.39681749 -169 820 C-168.20335938 820.84949219 -167.40671875 821.69898438 -166.5859375 822.57421875 C-132.87815902 857.54466646 -87.62029559 872.96825359 -40 874 C-38.69627441 874.04084717 -38.69627441 874.04084717 -37.36621094 874.08251953 C10.51285217 875.56996991 55.83409831 858.39489909 91 826 C122.32178636 796.410294 142.02860758 745.54891369 144.1066494 702.80636406 C144.16031548 700.56524076 144.18860559 698.32544171 144.20532227 696.08374023 C144.21522186 695.24361893 144.22512146 694.40349762 144.23532104 693.53791809 C144.26659967 690.79483743 144.2915586 688.05173953 144.31640625 685.30859375 C144.33700493 683.39331137 144.35800211 681.47803325 144.37937927 679.5627594 C144.43429925 674.5471035 144.48383985 669.53140865 144.53222656 664.51568604 C144.58266263 659.38737565 144.63823275 654.25912111 144.69335938 649.13085938 C144.80057252 639.08728741 144.9020977 629.04366674 145 619 C140.28732151 620.43995162 137.97371361 621.61591682 134.8125 625.4375 C126.6775555 634.89420265 117.9230311 643.43339965 108 651 C107.35675781 651.49258301 106.71351563 651.98516602 106.05078125 652.49267578 C95.22432632 660.71507813 84.11299648 667.82780677 72 674 C71.29520508 674.35932617 70.59041016 674.71865234 69.86425781 675.08886719 C35.10770517 692.57188045 -2.24889076 699.72583456 -41 699 C-41.9904834 698.98211426 -42.9809668 698.96422852 -44.00146484 698.94580078 C-138.84146216 696.9618216 -220.6980209 658.79065295 -286 591 C-287.8318325 589.00526406 -289.61120391 586.98900726 -291.35546875 584.91796875 C-293.37423765 582.56353756 -295.50416571 580.32539974 -297.625 578.0625 C-313.82714882 560.26226367 -327.03104262 539.80470204 -339 519 C-339.40460449 518.2982666 -339.80920898 517.5965332 -340.22607422 516.87353516 C-359.3782239 483.24905744 -370.92385471 445.32014815 -377.25 407.3125 C-377.40130371 406.41297607 -377.55260742 405.51345215 -377.70849609 404.58666992 C-380.56609355 386.16404589 -381.38108922 367.61619347 -381.3125 349 C-381.31100952 347.98695801 -381.30951904 346.97391602 -381.3079834 345.93017578 C-381.26207926 328.45371761 -380.41104323 311.32417704 -378 294 C-377.86078125 292.98228516 -377.7215625 291.96457031 -377.578125 290.91601562 C-368.18663435 224.95818544 -337.88434812 163.67766141 -294 114 C-293.14664063 113.03320312 -292.29328125 112.06640625 -291.4140625 111.0703125 C-284.99018033 103.96824922 -278.27555732 97.14929041 -271.52966309 90.35443115 C-270.48540045 89.30212218 -269.44262206 88.24833779 -268.40148926 87.19293213 C-261.60986992 80.31812657 -254.61914857 73.96980807 -247 68 C-246.26966553 67.4210498 -245.53933105 66.84209961 -244.78686523 66.24560547 C-214.44579477 42.34664405 -180.77914238 23.96169438 -144 12 C-143.00645508 11.67660645 -142.01291016 11.35321289 -140.98925781 11.02001953 C-125.56287335 6.08590082 -109.98877599 2.55446241 -94 0 C-92.47391113 -0.2477417 -92.47391113 -0.2477417 -90.91699219 -0.50048828 C-61.52148957 -5.05147308 -29.26998891 -5.46539567 0 0 Z M-82.0625 145.6875 C-82.96895264 145.94168701 -83.87540527 146.19587402 -84.80932617 146.45776367 C-122.63227051 157.47585217 -155.92663862 180.97308999 -180 212 C-180.71542969 212.89847656 -181.43085938 213.79695313 -182.16796875 214.72265625 C-192.52731582 228.05229398 -200.8865205 242.71785481 -208 258 C-208.79857422 259.70349609 -208.79857422 259.70349609 -209.61328125 261.44140625 C-233.55458179 314.82988781 -232.81077355 378.42410053 -212.18310547 432.65356445 C-201.69563758 459.34543036 -185.79825763 482.3965082 -166 503 C-165.42620605 503.60634277 -164.85241211 504.21268555 -164.26123047 504.83740234 C-130.92894092 539.96360147 -84.94332113 559.7969511 -36.60546875 561.22265625 C11.68711313 562.11940925 56.11715813 546.88948564 91.40234375 513.50390625 C92.25957031 512.67761719 93.11679688 511.85132813 94 511 C94.70253906 510.34902344 95.40507812 509.69804688 96.12890625 509.02734375 C133.49440132 473.47350905 154.54872526 417.94877598 156.05859375 367.02374268 C156.4971861 348.70565885 156.80504856 330.14929065 154 312 C153.8546582 311.05785645 153.70931641 310.11571289 153.55957031 309.14501953 C145.48508741 259.36849172 120.72906825 208.18585561 80 177 C79.06542969 176.26136719 78.13085938 175.52273438 77.16796875 174.76171875 C50.0894661 153.77316047 15.46334498 139.98187173 -19.046875 139.796875 C-19.89815979 139.79117493 -20.74944458 139.78547485 -21.62652588 139.77960205 C-23.42499573 139.77020231 -25.22348241 139.7636382 -27.02197266 139.75976562 C-29.70117646 139.75017478 -32.37957313 139.71915171 -35.05859375 139.6875 C-51.00899789 139.58876006 -66.68249062 141.30219564 -82.0625 145.6875 Z " fill="#5F6368" transform="translate(3107,748)"/>
<path d="M0 0 C40.26 0 80.52 0 122 0 C122 313.83 122 627.66 122 951 C83.06 951 44.12 951 4 951 C4 921.3 4 891.6 4 861 C2.35 861 0.7 861 -1 861 C-1.24621094 861.70898438 -1.49242188 862.41796875 -1.74609375 863.1484375 C-4.17536975 868.67295925 -8.2929694 873.27090294 -12 878 C-12.70511719 878.90234375 -13.41023438 879.8046875 -14.13671875 880.734375 C-22.51716038 891.20605438 -31.53580936 901.55997059 -42 910 C-43.09782048 910.90995815 -44.19545894 911.82013593 -45.29296875 912.73046875 C-103.62223537 960.69541226 -179.38663847 978.42222101 -253.64111328 971.359375 C-297.31267611 966.68685425 -340.07336699 951.84765493 -377 928 C-377.65677734 927.57686523 -378.31355469 927.15373047 -378.99023438 926.71777344 C-389.5550513 919.83587003 -399.38235088 912.14204192 -409 904 C-410.26650391 902.93265625 -410.26650391 902.93265625 -411.55859375 901.84375 C-423.57515751 891.3474794 -435.38285824 879.90518414 -445.1875 867.3046875 C-446.92789512 865.09168509 -448.76682515 863.05672266 -450.6875 861 C-491.37590641 815.53899721 -516.55913689 753.33742231 -526.75 693.875 C-527.04837769 692.14443359 -527.04837769 692.14443359 -527.3527832 690.37890625 C-530.57963104 670.46686024 -531.3489388 650.65020231 -531.31567383 630.49902344 C-531.31252613 626.53291977 -531.33603092 622.56757411 -531.36132812 618.6015625 C-531.41987956 595.31475594 -529.98498661 572.03796531 -525.25 549.1875 C-524.99395996 547.91455078 -524.73791992 546.64160156 -524.47412109 545.33007812 C-521.92881058 533.03771655 -518.75289577 520.97647611 -515 509 C-514.55599854 507.57929199 -514.55599854 507.57929199 -514.10302734 506.12988281 C-499.66284878 460.74200658 -475.33505607 417.36305925 -443.03515625 382.21484375 C-441.21532831 380.23434003 -439.44433669 378.22373723 -437.6875 376.1875 C-429.5876563 366.92517873 -421.37482906 358.00043283 -412 350 C-410.68515625 348.85337891 -410.68515625 348.85337891 -409.34375 347.68359375 C-394.66720487 335.12385801 -378.78127296 324.5251357 -362 315 C-361.23107422 314.56059082 -360.46214844 314.12118164 -359.66992188 313.66845703 C-317.51814525 289.82037604 -268.70168259 278.78910484 -220.5 278.75 C-219.74254486 278.74932526 -218.98508972 278.74865051 -218.2046814 278.74795532 C-172.98513008 278.8111978 -128.95379635 288.92916256 -88.86035156 310.02490234 C-86.98501345 311.00785515 -85.09924651 311.96802082 -83.2109375 312.92578125 C-63.35533301 323.10735381 -46.05859574 336.596189 -30 352 C-29.17628906 352.78246094 -28.35257813 353.56492187 -27.50390625 354.37109375 C-17.51119852 364.08670733 -6.2968175 376.40636501 0 389 C2.52733235 389.65555119 2.52733235 389.65555119 5 390 C4.84478685 389.29058266 4.6895737 388.58116532 4.52965713 387.85025048 C4.00272141 385.01464475 3.72658695 382.27226029 3.52548599 379.39599228 C3.40737367 377.71759018 3.40737367 377.71759018 3.28687525 376.00528097 C3.20576171 374.78519291 3.12464818 373.56510486 3.04107666 372.30804443 C2.95458784 371.01439673 2.86809901 369.72074903 2.77898932 368.38789988 C2.49505634 364.07147801 2.2257994 359.75421349 1.96191406 355.43652344 C1.89326786 354.31386417 1.89326786 354.31386417 1.82323486 353.16852492 C-0.2887444 318.30703034 -0.53675146 283.52086043 -0.41415204 248.60618646 C-0.38462665 239.95647343 -0.37947177 231.30678378 -0.37496826 222.65702757 C-0.36635071 207.24900851 -0.34011724 191.84107723 -0.30175781 176.43310547 C-0.26467704 161.52262796 -0.23654546 146.61217485 -0.21972656 131.70166016 C-0.21867567 130.77264776 -0.21762477 129.84363535 -0.21654204 128.88647106 C-0.21131947 124.22292376 -0.20626522 119.5593763 -0.20129442 114.89582872 C-0.16025727 76.59714098 -0.08676019 38.2986168 0 0 Z M-295 413 C-295.60005859 413.32081543 -296.20011719 413.64163086 -296.81835938 413.97216797 C-347.18367371 441.00851037 -382.08988086 489.95722456 -398.5546875 544.02001953 C-400.80855399 551.76768558 -402.67591685 559.58704145 -404.25 567.5 C-404.47683472 568.61689209 -404.47683472 568.61689209 -404.70825195 569.75634766 C-407.87874382 586.89598014 -408.32674942 604.26724827 -408.26074219 621.64746094 C-408.25000984 624.9969288 -408.26071682 628.34586058 -408.2734375 631.6953125 C-408.28618225 649.48624578 -407.44502241 667.11186922 -403.75 684.5625 C-403.53384033 685.60494873 -403.31768066 686.64739746 -403.0949707 687.72143555 C-391.19080044 743.35486442 -359.45362726 795.74895525 -312 828 C-282.62025797 846.8603005 -248.26098679 860.00635503 -212.98828125 860.203125 C-212.14612061 860.21018463 -211.30395996 860.21724426 -210.4362793 860.22451782 C-172.86846802 860.46792002 -139.44014509 854.80846271 -106 837 C-105.10716309 836.53255371 -105.10716309 836.53255371 -104.19628906 836.05566406 C-89.19770845 828.15066759 -76.15731818 817.74154122 -64 806 C-63.0172368 805.08039807 -62.0341605 804.16113063 -61.05078125 803.2421875 C-28.47293441 772.29616602 -8.73771456 728.22541999 0.25 684.8125 C0.40122314 684.0903833 0.55244629 683.3682666 0.70825195 682.62426758 C1.19977356 680.08950368 1.61113022 677.55266922 2 675 C2.26816528 673.24623047 2.26816528 673.24623047 2.54174805 671.45703125 C4.41821346 657.85019652 4.34088457 644.18128927 4.31567383 630.47119141 C4.31105532 627.75097053 4.31793046 625.03119817 4.33618164 622.31103516 C4.72103029 564.37534247 -10.69972307 508.38762959 -48 463 C-48.45310547 462.44006348 -48.90621094 461.88012695 -49.37304688 461.30322266 C-82.10825078 421.01287739 -130.22121857 396.29978002 -181.60546875 390.4375 C-220.72236259 386.755033 -260.45492508 394.1862488 -295 413 Z " fill="#5F6368" transform="translate(7879,475)"/>
<path d="M0 0 C1.09497803 -0.00067474 2.18995605 -0.00134949 3.31811523 -0.00204468 C19.8799849 0.01416571 36.07347988 0.46330443 52.4375 3.25 C53.47052246 3.42160645 54.50354492 3.59321289 55.56787109 3.77001953 C110.5294544 13.17255916 161.97907662 36.84639248 203.4375 74.25 C204.333479 75.0534082 204.333479 75.0534082 205.24755859 75.87304688 C215.19028416 84.83064563 224.47251153 94.31753038 233.4375 104.25 C234.21988037 105.1152832 234.21988037 105.1152832 235.01806641 105.99804688 C254.41253552 127.61893797 270.51081885 151.82490182 284.4375 177.25 C285.06495117 178.39033691 285.69240234 179.53067383 286.33886719 180.70556641 C291.06568628 189.37586185 295.27031225 198.18801139 299.1875 207.25 C299.4803186 207.92189362 299.77313721 208.59378723 300.0748291 209.28604126 C306.25222163 223.47462275 311.87051269 237.86706223 317.33105469 252.34448242 C318.0432383 254.21467156 318.81127344 256.06500437 319.64550781 257.8840332 C320.4375 260.25 320.4375 260.25 320.50073242 262.36108398 C318.74626262 265.47803757 315.61922622 266.2486933 312.42578125 267.47265625 C311.31843628 267.91881035 311.31843628 267.91881035 310.1887207 268.37397766 C307.71450039 269.36749345 305.23234806 270.33948983 302.75 271.3125 C300.99108175 272.01534344 299.23287541 272.71997079 297.4753418 273.42626953 C294.69124375 274.54460512 291.90662931 275.66148917 289.1197052 276.77276611 C279.58597482 280.57450074 270.10418782 284.49820591 260.62460327 288.43258667 C255.76866275 290.44687792 250.90988448 292.4542899 246.05078125 294.4609375 C245.0843721 294.8600383 244.11796295 295.2591391 243.12226868 295.67033386 C231.99574884 300.26212099 220.85261596 304.81316479 209.7093811 309.36419678 C195.60466121 315.12559249 181.51651335 320.92608436 167.4375 326.75 C152.45076222 332.94940435 137.45191542 339.11793102 122.4375 345.25 C106.34422577 351.82286995 90.26939304 358.4392 74.20507812 365.08251953 C60.33447157 370.81846714 46.45481921 376.53164785 32.56536865 382.22180176 C19.2829854 387.66401006 6.01455886 393.13950601 -7.25 398.625 C-23.24311119 405.2386926 -39.25145047 411.81388808 -55.27349854 418.35714722 C-68.74526302 423.85966687 -82.20261627 429.39618133 -95.65026855 434.95736694 C-103.95325644 438.39088021 -112.2575733 441.82117921 -120.5625 445.25 C-121.33962341 445.570896 -122.11674683 445.89179199 -122.91741943 446.22241211 C-127.5467237 448.13330566 -132.1786924 450.03755291 -136.8125 451.9375 C-138.45424194 452.61510376 -138.45424194 452.61510376 -140.12915039 453.30639648 C-141.58889282 453.90303101 -141.58889282 453.90303101 -143.078125 454.51171875 C-143.90602539 454.85162842 -144.73392578 455.19153809 -145.58691406 455.54174805 C-147.5625 456.25 -147.5625 456.25 -149.5625 456.25 C-142.16914421 471.78017753 -133.97995599 486.28202529 -122.5625 499.25 C-121.45068359 500.52617188 -121.45068359 500.52617188 -120.31640625 501.828125 C-118.09804165 504.33483855 -115.84414489 506.80082175 -113.5625 509.25 C-112.86640625 510.00023437 -112.1703125 510.75046875 -111.453125 511.5234375 C-101.55885492 521.8149228 -89.78314602 529.96381278 -77.5625 537.25 C-76.94487793 537.6197998 -76.32725586 537.98959961 -75.69091797 538.37060547 C-57.59613602 549.01323685 -37.28568249 556.03251364 -16.5625 559.25 C-15.85174316 559.36424316 -15.14098633 559.47848633 -14.40869141 559.59619141 C39.75013819 567.94068124 95.4893432 553.43752487 139.4375 521.25 C143.25893312 518.4184818 146.8908566 515.42015356 150.4375 512.25 C150.9521582 511.79415527 151.46681641 511.33831055 151.99707031 510.86865234 C167.05601017 497.48145771 179.65192862 482.27984955 190.4375 465.25 C193.97847452 465.89186541 196.35877915 467.33344645 199.328125 469.3359375 C200.82508911 470.33935181 200.82508911 470.33935181 202.35229492 471.36303711 C203.46410307 472.11691692 204.57583519 472.87090884 205.6875 473.625 C206.8750801 474.42439522 208.06299784 475.22328902 209.2512207 476.02172852 C212.58972742 478.26741088 215.9230665 480.5206645 219.25567627 482.77508545 C223.07268354 485.35538536 226.89413526 487.92909157 230.71484375 490.50390625 C237.4315964 495.03171531 244.1445557 499.56510364 250.85546875 504.1015625 C258.10255708 509.00040735 265.35599141 513.88971999 272.61328125 518.7734375 C275.34106396 520.61027776 278.06871047 522.44732007 280.79629517 524.28445435 C282.53895208 525.45760211 284.28208586 526.63004186 286.02572632 527.80172729 C288.45594228 529.43491937 290.88439031 531.07070996 293.3125 532.70703125 C294.01913284 533.18091278 294.72576569 533.65479431 295.45381165 534.14303589 C300.22949319 537.36629114 304.85760597 540.75451882 309.4375 544.25 C307.98096249 548.56389797 305.67674514 551.84815346 302.875 555.375 C302.42882324 555.94484619 301.98264648 556.51469238 301.52294922 557.10180664 C300.1690239 558.82430852 298.80547518 560.53864235 297.4375 562.25 C296.69886719 563.17425781 295.96023438 564.09851562 295.19921875 565.05078125 C292.96838439 567.80363901 290.70547336 570.52768098 288.4375 573.25 C287.63828125 574.23613281 286.8390625 575.22226563 286.015625 576.23828125 C279.35958193 584.33139642 272.09126401 591.78461624 264.6875 599.1875 C263.94424469 599.93211487 263.94424469 599.93211487 263.18597412 600.69177246 C257.45081246 606.42574794 251.64589045 612.02668953 245.4375 617.25 C244.83486328 617.75942139 244.23222656 618.26884277 243.61132812 618.79370117 C189.11424499 664.44888082 123.90279272 695.4969492 52.4375 701.25 C51.17292969 701.36085938 49.90835938 701.47171875 48.60546875 701.5859375 C-2.23037248 705.4872345 -53.35041881 699.95565158 -101.5625 683.25 C-102.4066748 682.95931641 -103.25084961 682.66863281 -104.12060547 682.36914062 C-125.91658904 674.75210644 -147.08017196 664.65430738 -166.5625 652.25 C-167.18979004 651.85248535 -167.81708008 651.4549707 -168.46337891 651.04541016 C-191.88049941 636.08998881 -212.62142494 618.20962694 -232.3125 598.6875 C-233.1876123 597.82543945 -234.06272461 596.96337891 -234.96435547 596.07519531 C-240.93316756 590.11428295 -246.31017602 583.84526962 -251.5625 577.25 C-252.56311898 576.04154138 -253.56655946 574.83540692 -254.57421875 573.6328125 C-266.74118338 558.91047366 -277.1080181 542.79069727 -286.48046875 526.16748047 C-287.48507888 524.38719889 -288.50744549 522.6169692 -289.53125 520.84765625 C-333.68045141 441.86762996 -342.03977567 336.32527709 -318.34765625 249.37109375 C-312.54357472 229.08189807 -305.5691346 209.35228433 -296.5625 190.25 C-296.13356445 189.3331543 -295.70462891 188.41630859 -295.26269531 187.47167969 C-280.79735489 156.81459425 -261.4802578 129.16615226 -238.5625 104.25 C-237.08285559 102.58375745 -235.60369744 100.91708298 -234.125 99.25 C-227.07032638 91.42103293 -219.65697138 84.0019101 -211.5625 77.25 C-211.02415527 76.79786133 -210.48581055 76.34572266 -209.93115234 75.87988281 C-160.1721102 34.22548273 -100.24107772 8.10860976 -35.5625 1.25 C-34.75047119 1.1557373 -33.93844238 1.06147461 -33.10180664 0.96435547 C-22.11018156 -0.15026012 -11.03587316 0.00609888 0 0 Z M-73.72607422 157.25585938 C-75.49668645 158.21437214 -77.28134865 159.1467906 -79.06640625 160.078125 C-95.05373879 168.73565661 -108.64090516 180.57625231 -121.5625 193.25 C-122.16626465 193.83982666 -122.7700293 194.42965332 -123.39208984 195.03735352 C-128.54659347 200.12365401 -133.07806195 205.56518207 -137.5625 211.25 C-138.30757812 212.18972656 -139.05265625 213.12945313 -139.8203125 214.09765625 C-159.61744601 239.72356252 -171.93056478 270.26037451 -176.5625 302.25 C-176.6663501 302.93715088 -176.7702002 303.62430176 -176.87719727 304.33227539 C-177.82343092 311.47083428 -177.67279712 318.62454828 -177.625 325.8125 C-177.62048828 327.10736328 -177.61597656 328.40222656 -177.61132812 329.73632812 C-177.59962601 332.907601 -177.58323113 336.07877546 -177.5625 339.25 C-171.26739471 337.24435181 -165.15838026 334.94198337 -159.0625 332.3984375 C-157.71836533 331.84200813 -157.71836533 331.84200813 -156.34707642 331.27433777 C-153.41765796 330.06082571 -150.49007623 328.84294887 -147.5625 327.625 C-145.4927908 326.76656833 -143.42296477 325.90841831 -141.35302734 325.05053711 C-137.12235452 323.29658473 -132.89241061 321.54089205 -128.66308594 319.78369141 C-123.14429444 317.49096215 -117.62339251 315.20336859 -112.1015625 312.91796875 C-92.88880218 304.96415534 -73.69122913 296.97411885 -54.49832153 288.97253418 C-40.54601184 283.15597241 -26.58935834 277.35007834 -12.625 271.5625 C-11.37766586 271.04553558 -11.37766586 271.04553558 -10.10513306 270.51812744 C-5.10066488 268.44416426 -0.095958 266.37077754 4.90881348 264.29754639 C12.68957557 261.07424878 20.46994122 257.84999481 28.25 254.625 C29.1043161 254.27088043 29.9586322 253.91676086 30.83883667 253.5519104 C43.43531905 248.3300411 56.02560629 243.09348022 68.6104126 237.84353638 C77.56224565 234.1091814 86.51835503 230.38540381 95.48046875 226.67578125 C96.41069855 226.29062347 97.34092834 225.9054657 98.29934692 225.50863647 C102.83240949 223.63186066 107.36597115 221.75630752 111.90039062 219.8828125 C113.55210221 219.19926436 115.2037958 218.51567275 116.85546875 217.83203125 C117.95945259 217.37670769 117.95945259 217.37670769 119.08573914 216.91218567 C124.24169246 214.77620412 129.34699145 212.53737636 134.4375 210.25 C126.90499449 185.40397438 105.42750429 167.22470884 83.4375 155.25 C34.20446694 129.21911344 -24.88201368 130.80445512 -73.72607422 157.25585938 Z " fill="#5F6368" transform="translate(4061.5625,745.75)"/>
<path d="M0 0 C0.9892749 0.7110791 0.9892749 0.7110791 1.99853516 1.43652344 C12.13632766 8.76982877 21.70960124 16.62285351 31 25 C31.62793457 25.56477051 32.25586914 26.12954102 32.90283203 26.71142578 C45.62514167 38.21312087 57.47042787 50.44094832 68 64 C68.53850586 64.68771484 69.07701172 65.37542969 69.63183594 66.08398438 C113.78311184 122.72999942 140.96650093 193.44411727 141.203125 265.66015625 C141.20595238 266.34360044 141.20877975 267.02704464 141.21169281 267.73119926 C141.22657845 271.36092366 141.23587014 274.99060952 141.24023438 278.62036133 C141.24458172 281.5550607 141.25834201 284.48945989 141.28125 287.42407227 C141.55434596 323.16551173 137.37094123 357.68045582 127 392 C126.73993164 392.86399414 126.47986328 393.72798828 126.21191406 394.61816406 C115.35263074 430.12017845 97.93531779 463.150734 76 493 C75.36046387 493.87132568 75.36046387 493.87132568 74.70800781 494.76025391 C71.88788693 498.57446181 68.98225093 502.31130882 66 506 C65.56236328 506.54205078 65.12472656 507.08410156 64.67382812 507.64257812 C57.41130283 516.5327332 49.46313842 524.74201355 41.375 532.875 C40.89398834 533.36127869 40.41297668 533.84755737 39.91738892 534.34857178 C33.29223117 541.02978996 26.36495117 547.14311026 19 553 C17.82617056 553.97656765 16.65509652 554.95646866 15.48828125 555.94140625 C-5.79808991 573.63694564 -30.00816552 588.17184785 -55 600 C-55.73734375 600.35271973 -56.4746875 600.70543945 -57.234375 601.06884766 C-143.18933601 641.93711456 -243.79386602 645.4198493 -333.26269531 614.05932617 C-383.6939488 595.70530588 -437.33674173 564.89695661 -472.21875 523.08984375 C-474.43197645 520.49318552 -476.78243775 518.04305801 -479.125 515.5625 C-485.99551662 508.15624738 -492.00817173 500.12141031 -498 492 C-498.51208008 491.31276855 -499.02416016 490.62553711 -499.55175781 489.91748047 C-507.46512528 479.25351807 -514.24507496 468.12320879 -520.63330078 456.48681641 C-521.87555929 454.22642963 -523.13671813 451.97781654 -524.40234375 449.73046875 C-548.75951198 405.85271718 -562.07196504 353.41508339 -562.203125 303.2734375 C-562.20595238 302.53141712 -562.20877975 301.78939674 -562.21169281 301.0248909 C-562.2265991 297.08625194 -562.23587859 293.14764869 -562.24023438 289.20898438 C-562.2445895 286.01127527 -562.25837747 282.81384048 -562.28125 279.61621094 C-562.41503502 260.51903816 -562.00109299 241.91697514 -559 223 C-558.84283508 221.96513458 -558.84283508 221.96513458 -558.68249512 220.90936279 C-558.12380391 217.25394314 -557.47420094 213.62601213 -556.75 210 C-556.43748291 208.41227783 -556.43748291 208.41227783 -556.11865234 206.79248047 C-544.36928287 149.20438165 -517.37354503 93.63812764 -477.2578125 50.44140625 C-475.32656147 48.35311578 -473.4668194 46.22908466 -471.625 44.0625 C-464.39928878 35.76061902 -456.40499238 28.09314239 -448 21 C-447.09378906 20.20464844 -446.18757813 19.40929687 -445.25390625 18.58984375 C-436.28198818 10.76544649 -426.75397636 3.81355206 -417 -3 C-416.36336426 -3.44730469 -415.72672852 -3.89460937 -415.07080078 -4.35546875 C-367.34964255 -37.70000285 -311.53354905 -57.61206433 -254 -65 C-252.65663574 -65.17789063 -252.65663574 -65.17789063 -251.28613281 -65.359375 C-163.53798289 -76.47259715 -71.45710226 -51.47501301 0 0 Z M-329 112 C-329.56831543 112.44134277 -330.13663086 112.88268555 -330.72216797 113.33740234 C-346.25392956 125.57608094 -359.58273941 139.89029507 -371 156 C-371.46132324 156.64855957 -371.92264648 157.29711914 -372.39794922 157.96533203 C-394.88701416 189.88660892 -409.03406391 229.73646241 -409.203125 268.98046875 C-409.20882507 270.02914627 -409.21452515 271.07782379 -409.22039795 272.15827942 C-409.22981242 274.37626144 -409.23636774 276.59425723 -409.24023438 278.81225586 C-409.24984018 282.13226348 -409.28085639 285.45162431 -409.3125 288.77148438 C-409.40100246 306.438818 -407.82083178 323.59252296 -403.4375 340.75 C-403.18774414 341.73186279 -402.93798828 342.71372559 -402.68066406 343.7253418 C-393.1223815 379.43881829 -374.07127269 411.00833425 -348 437 C-347.16984375 437.8765625 -346.3396875 438.753125 -345.484375 439.65625 C-311.15505051 475.35874747 -262.45484018 494.82817365 -213.26098633 496.0690918 C-167.13949187 496.41379654 -121.76822804 480.47791785 -87 450 C-86.175 449.28457031 -85.35 448.56914063 -84.5 447.83203125 C-43.47413197 411.61388213 -17.25033674 360.82991286 -13 306 C-12.85533102 302.65055277 -12.81337041 299.30544514 -12.796875 295.953125 C-12.79117493 295.02062927 -12.78547485 294.08813354 -12.77960205 293.12738037 C-12.77021561 291.16094065 -12.7636436 289.19448565 -12.75976562 287.22802734 C-12.7501602 284.2988534 -12.71911687 281.37041326 -12.6875 278.44140625 C-12.37028856 221.98549314 -34.77719715 168.83692574 -74.29882812 128.70947266 C-75.1409082 127.86328369 -75.1409082 127.86328369 -76 127 C-76.52529297 126.47067871 -77.05058594 125.94135742 -77.59179688 125.39599609 C-113.14397508 90.03435605 -163.23320728 71.72977058 -212.95458984 71.7512207 C-254.90665374 72.23354799 -295.86365983 86.20193278 -329 112 Z " fill="#5F6368" transform="translate(2523,813)"/>
<path d="M0 0 C0.90621094 0.42361816 1.81242187 0.84723633 2.74609375 1.28369141 C24.16610616 11.38223981 44.15459555 23.67530076 63 38 C63.6482373 38.49129395 64.29647461 38.98258789 64.96435547 39.48876953 C71.72952063 44.6427686 78.27176084 49.9600991 84.5234375 55.734375 C86.58592874 57.62119664 88.67788158 59.45440818 90.79296875 61.28125 C94.99801751 64.95257349 98.99345494 68.8011463 102.9375 72.75 C103.63697754 73.4502832 104.33645508 74.15056641 105.05712891 74.87207031 C109.64913134 79.51844752 113.91589855 84.25223788 117.94921875 89.39453125 C120.11746217 92.14923289 122.39674569 94.78407376 124.6875 97.4375 C160.41143693 140.44978264 183.12749314 194.27281949 193 249 C193.15307617 249.8348291 193.30615234 250.6696582 193.46386719 251.52978516 C203.01475362 304.87524184 200.01842713 362.83348308 186 415 C185.61569824 416.43158447 185.61569824 416.43158447 185.22363281 417.89208984 C172.1447443 465.58818704 147.60387551 511.2922792 114.05078125 547.765625 C112.13614309 549.85166886 110.28177042 551.97682046 108.4375 554.125 C104.81799364 558.28197366 100.93325578 562.14206189 97 566 C96.175 566.825 95.35 567.65 94.5 568.5 C93.675 569.325 92.85 570.15 92 571 C91.44054688 571.58265625 90.88109375 572.1653125 90.3046875 572.765625 C84.90080863 578.32265024 79.08964667 583.21553095 73 588 C72.07719238 588.72944824 72.07719238 588.72944824 71.13574219 589.47363281 C55.27057756 601.97086077 38.64795011 613.17275861 21 623 C20.15904785 623.46905762 19.3180957 623.93811523 18.45166016 624.42138672 C-64.41593913 670.17733586 -164.45556268 679.72304414 -255.1953125 654 C-302.45467935 640.09720762 -346.46925802 617.29830616 -384.17675781 585.53076172 C-385.90537546 584.07944508 -387.64942203 582.64927021 -389.3984375 581.22265625 C-403.88443852 569.2695419 -417.49266905 555.84892808 -429 541 C-430.56025217 539.18556464 -432.12291451 537.37320007 -433.6875 535.5625 C-445.41467796 521.46803456 -455.21835394 506.06223605 -464 490 C-464.48178711 489.13068848 -464.96357422 488.26137695 -465.45996094 487.36572266 C-491.29821603 440.52232784 -506.00999229 386.96656584 -506.203125 333.37109375 C-506.20882507 332.10193619 -506.21452515 330.83277863 -506.22039795 329.52516174 C-506.22978804 326.8485255 -506.23671407 324.17199957 -506.24023438 321.49536133 C-506.24671101 317.49999671 -506.28089557 313.50500975 -506.3125 309.50976562 C-506.4066697 286.86335343 -504.77175477 264.46821621 -500.25 242.25 C-499.99395996 240.96617432 -499.73791992 239.68234863 -499.47412109 238.35961914 C-494.01354756 211.54881271 -484.88722185 185.61967732 -473 161 C-472.54560547 160.05318359 -472.09121094 159.10636719 -471.62304688 158.13085938 C-460.68887908 135.6002929 -447.1820059 114.15882818 -431 95 C-430.50274414 94.40413086 -430.00548828 93.80826172 -429.49316406 93.19433594 C-424.40156957 87.10142601 -419.29990467 81.07847115 -413.5703125 75.5703125 C-411.79397233 73.79397233 -410.18696946 71.91585411 -408.5625 70 C-405.64815955 66.62584139 -402.54343611 63.71102714 -399.14453125 60.83203125 C-396.83461771 58.85871713 -394.60911838 56.80860663 -392.375 54.75 C-386.16811908 49.16569376 -379.64690217 44.04533897 -373 39 C-372.34563965 38.49984375 -371.6912793 37.9996875 -371.01708984 37.484375 C-317.46967882 -3.18649485 -251.86389977 -27.34844514 -185 -33 C-183.17855469 -33.16822266 -183.17855469 -33.16822266 -181.3203125 -33.33984375 C-119.40819684 -38.19961197 -56.1251493 -26.45755689 0 0 Z M-291 161 C-291.85335938 161.80050781 -292.70671875 162.60101562 -293.5859375 163.42578125 C-300.47044534 170.06053565 -306.31376798 177.33964777 -312 185 C-312.40105957 185.54027832 -312.80211914 186.08055664 -313.21533203 186.63720703 C-340.34678533 223.60566229 -353.41435778 267.53108332 -353.31567383 313.1340332 C-353.31252245 316.16589671 -353.336037 319.19677237 -353.36132812 322.22851562 C-353.4157048 338.92511886 -351.79954201 355.3293769 -347.75 371.5625 C-347.43421997 372.84543945 -347.43421997 372.84543945 -347.11206055 374.15429688 C-338.14908333 409.32245216 -320.26464044 440.99702442 -295 467 C-294.22438721 467.80630859 -294.22438721 467.80630859 -293.43310547 468.62890625 C-286.36136431 475.95784028 -279.12000245 482.82125497 -271 489 C-270.21786133 489.59675537 -270.21786133 489.59675537 -269.41992188 490.20556641 C-260.41805375 497.01542119 -250.99985108 502.77593555 -241 508 C-239.84371094 508.60585937 -238.68742187 509.21171875 -237.49609375 509.8359375 C-193.61421481 531.50721179 -141.12522682 534.99671003 -94.765625 519.32421875 C-93.52296875 518.88722656 -92.2803125 518.45023438 -91 518 C-89.25976562 517.39091797 -89.25976562 517.39091797 -87.484375 516.76953125 C-70.36263319 510.3394498 -53.82467216 501.68372706 -39.5390625 490.22900391 C-38.15053782 489.12021056 -36.73303954 488.04793814 -35.3125 486.98046875 C-20.81100067 475.77275509 -7.58739592 461.952978 3 447 C3.41507813 446.41863281 3.83015625 445.83726562 4.2578125 445.23828125 C27.8244465 411.91245832 43.02900596 371.80594575 43.203125 330.703125 C43.20882507 329.63366638 43.21452515 328.56420776 43.22039795 327.46234131 C43.22980413 325.20325698 43.2363644 322.94415919 43.24023438 320.68505859 C43.24985359 317.30149933 43.28088392 313.91857116 43.3125 310.53515625 C43.39960307 292.84423878 42.00961577 275.62031315 37.3125 258.5 C37.05903809 257.55697021 36.80557617 256.61394043 36.54443359 255.64233398 C32.10700137 239.68275096 25.83278882 224.57354389 18 210 C17.40960937 208.86820313 16.81921875 207.73640625 16.2109375 206.5703125 C8.01902723 191.47628209 -2.57464232 177.68769971 -14.58837891 165.44238281 C-15.97432632 164.02623316 -17.33705642 162.58748019 -18.69921875 161.1484375 C-53.3144222 125.26990546 -102.84232534 105.88692247 -152.29150391 104.64648438 C-204.88189913 104.22932602 -253.24306834 124.95929251 -291 161 Z " fill="#5F6368" transform="translate(1700,780)"/>
<path d="M0 0 C3.85461739 0.01713617 7.70861476 0.0068651 11.56321144 -0.01032448 C97.22794633 -0.33329114 181.78475016 22.95800476 301.9284668 106.39111328 C302.85272461 107.21611328 303.77698242 108.04111328 304.72924805 108.89111328 C306.30795285 110.30931243 307.88304759 111.7315587 309.4519043 113.16064453 C310.84858768 114.41854076 312.25201867 115.66931459 313.67724609 116.89477539 C319.01186653 121.48776152 324.02704046 126.33942523 328.9909668 131.32861328 C329.75473633 132.08851563 330.51850586 132.84841797 331.30541992 133.63134766 C338.47281816 140.81100834 344.8869633 148.24905514 350.9284668 156.39111328 C346.5209483 160.82351787 342.11002788 165.25249974 337.69604492 169.6784668 C336.19772973 171.18178283 334.70031672 172.68599864 333.20385742 174.19116211 C331.04156455 176.36570798 328.87595067 178.53690038 326.7097168 180.70751953 C325.72171082 181.70326744 325.72171082 181.70326744 324.71374512 182.71913147 C320.88292532 186.55040333 316.93395997 190.16890536 312.8338623 193.70933533 C309.93930819 196.26418406 307.22966826 198.98455198 304.5222168 201.73486328 C303.95321655 202.30765015 303.38421631 202.88043701 302.79797363 203.47058105 C301.00563698 205.27496579 299.21662364 207.08258688 297.4284668 208.89111328 C283.77280367 222.70233319 283.77280367 222.70233319 277.58276367 227.96386719 C275.06868956 230.13288685 272.76006648 232.46463027 270.4284668 234.82861328 C269.5725293 235.69357422 268.7165918 236.55853516 267.8347168 237.44970703 C267.2056543 238.09037109 266.5765918 238.73103516 265.9284668 239.39111328 C262.24407627 236.62943351 259.44720767 233.76427345 256.6159668 230.14111328 C253.21179806 225.88872974 249.66976665 222.00904372 245.76049805 218.22314453 C244.03345624 216.49610272 242.47911975 214.71363884 240.9284668 212.82861328 C238.25916687 209.65121605 235.32465099 206.99730045 232.1628418 204.31689453 C229.70578831 202.19918934 227.35688747 199.98506009 224.9909668 197.76611328 C193.22533642 168.88826748 153.58444309 147.53837344 112.9284668 134.39111328 C111.93782227 134.06916992 110.94717773 133.74722656 109.92651367 133.41552734 C98.7711036 129.84681888 87.5439729 126.9149394 76.0534668 124.64111328 C75.1241333 124.45452148 74.1947998 124.26792969 73.23730469 124.07568359 C69.81080909 123.43870135 66.37661249 122.89415353 62.9284668 122.39111328 C62.06874268 122.26476501 61.20901855 122.13841675 60.32324219 122.00823975 C43.30258565 119.58920069 26.43963822 118.91335472 9.27124023 119 C5.87244951 119.01702232 2.47436775 119.00694614 -0.92439842 118.98967838 C-29.0477675 118.86885072 -56.52734816 121.47063808 -84.0715332 127.39111328 C-85.57393555 127.71354004 -85.57393555 127.71354004 -87.10668945 128.04248047 C-112.3414359 133.60310147 -136.69477189 142.43944958 -160.0715332 153.39111328 C-160.93037109 153.79297852 -161.78920898 154.19484375 -162.67407227 154.60888672 C-193.99328088 169.4267052 -222.9056031 189.26573824 -248.28637695 212.82470703 C-250.59800337 214.95477513 -252.937663 217.03063086 -255.3215332 219.07861328 C-261.33943892 224.31157477 -266.86480899 229.98196787 -272.05200195 236.03564453 C-273.58006827 237.81789596 -275.12787476 239.58324763 -276.68481445 241.34033203 C-293.82672323 260.79973406 -308.10743383 282.24983287 -320.67700195 304.88085938 C-321.54681242 306.44657913 -322.42105707 308.00985374 -323.30200195 309.56933594 C-354.72298371 365.26651137 -366.49925609 429.33849052 -366.38720703 492.64208984 C-366.38259658 495.4606125 -366.38944291 498.27870133 -366.40771484 501.09716797 C-366.96989511 588.79274298 -340.79584345 675.41022785 -284.0715332 743.39111328 C-283.24395508 744.39142578 -282.41637695 745.39173828 -281.5637207 746.42236328 C-269.46534784 760.94959271 -256.63252918 775.28475328 -242.0715332 787.39111328 C-241.53995605 787.83648438 -241.00837891 788.28185547 -240.46069336 788.74072266 C-172.68244093 845.36605541 -89.37474426 875.278159 -1.0715332 874.82861328 C0.20707581 874.8255719 1.48568481 874.82253052 2.80303955 874.81939697 C61.41478328 874.6142089 118.15296875 862.38405604 170.9284668 836.39111328 C171.83145508 835.94654785 172.73444336 835.50198242 173.66479492 835.04394531 C199.42341377 822.2255199 223.01645443 806.37063731 245.07299805 787.93798828 C246.81762567 786.48351978 248.57476879 785.0457183 250.3347168 783.60986328 C264.77409162 771.68562558 278.57316869 758.30512921 289.9284668 743.39111328 C290.94249557 742.15632705 291.96228881 740.92622237 292.9909668 739.70361328 C293.6303418 738.94048828 294.2697168 738.17736328 294.9284668 737.39111328 C300.20726167 741.80175056 305.12475571 746.44943769 309.97509766 751.32421875 C310.74665192 752.09562698 311.51820618 752.86703522 312.31314087 753.66181946 C314.84224398 756.19161472 317.36779455 758.7249249 319.89331055 761.25830078 C321.6542866 763.02114349 323.41548475 764.78376437 325.17689514 766.5461731 C329.79698747 771.1700711 334.41406791 775.7969651 339.03051758 780.42449951 C343.74765948 785.15244318 348.46820431 789.87698887 353.18823242 794.60205078 C362.43776715 803.86228843 371.68421845 813.12559853 380.9284668 822.39111328 C376.5142753 831.57471684 368.68196008 838.79701611 361.47924805 845.84033203 C359.36214481 847.95743527 357.41029674 850.09819114 355.4909668 852.39111328 C351.24969133 857.34936627 346.3595212 861.60996418 341.51342773 865.95898438 C339.95451178 867.36757972 338.41169961 868.79168039 336.8737793 870.22314453 C330.43157861 876.21511196 323.81898465 881.91669183 316.9284668 887.39111328 C316.33453125 887.87354492 315.7405957 888.35597656 315.12866211 888.85302734 C236.97963033 952.30736939 136.48919068 987.98976751 -61.9934082 991.61376953 C-153.71742822 981.51798648 -242.48006907 944.68055084 -332.53027344 869.69702148 C-334.13649779 868.23955304 -335.74922564 866.78919173 -337.37084961 865.34887695 C-343.53603239 859.86793653 -349.44015814 854.17432405 -355.2590332 848.32861328 C-356.10916992 847.48234375 -356.95930664 846.63607422 -357.83520508 845.76416016 C-362.78992513 840.80178803 -367.51917727 835.723182 -372.0715332 830.39111328 C-373.0208263 829.30800475 -373.97129398 828.22592423 -374.9230957 827.14501953 C-382.15659894 818.85144504 -388.93138086 810.26560534 -395.52514648 801.45654297 C-396.97041816 799.52616748 -398.42483556 797.60299956 -399.88012695 795.68017578 C-448.10762141 731.46970663 -478.48148932 653.49998072 -489.3215332 574.14111328 C-489.47259521 573.04444336 -489.62365723 571.94777344 -489.77929688 570.81787109 C-490.26646652 567.01393618 -490.68856868 563.20666357 -491.0715332 559.39111328 C-491.15873627 558.52605164 -491.24593933 557.66098999 -491.33578491 556.76971436 C-493.1441223 538.1223413 -493.43501322 519.55673819 -493.38959122 500.84166336 C-493.38395147 498.4819151 -493.3811306 496.12217402 -493.37850952 493.76242065 C-493.34206635 471.19603901 -493.05897935 448.79407016 -490.0715332 426.39111328 C-489.9407135 425.38920959 -489.9407135 425.38920959 -489.80725098 424.36706543 C-483.35555461 375.13196003 -469.97990316 327.4210766 -449.0715332 282.39111328 C-448.62841797 281.42270508 -448.18530273 280.45429687 -447.72875977 279.45654297 C-434.22135806 249.98495138 -417.49636807 222.33374516 -398.0715332 196.39111328 C-397.62326172 195.78976562 -397.17499023 195.18841797 -396.71313477 194.56884766 C-390.48147935 186.23795934 -383.86456236 178.26556748 -377.0715332 170.39111328 C-376.1144043 169.28123047 -376.1144043 169.28123047 -375.13793945 168.14892578 C-373.46031684 166.21946605 -371.766736 164.30513979 -370.0715332 162.39111328 C-369.16987427 161.36219971 -369.16987427 161.36219971 -368.25 160.3125 C-362.17376813 153.45521477 -355.78477642 146.9508094 -349.29638672 140.4855957 C-347.5047737 138.69936658 -345.71860266 136.90781981 -343.93286133 135.11572266 C-338.14859647 129.32784596 -332.33621068 123.66396783 -326.0715332 118.39111328 C-325.10731445 117.54548828 -324.1430957 116.69986328 -323.1496582 115.82861328 C-313.50099601 107.51263924 -303.34499149 99.91467737 -293.0715332 92.39111328 C-291.97252686 91.58407959 -291.97252686 91.58407959 -290.85131836 90.76074219 C-274.48255635 78.79851625 -257.21198351 68.22778541 -239.36254883 58.62695312 C-237.81601502 57.79270823 -236.27310679 56.95171194 -234.73364258 56.10449219 C-178.48155158 25.14750405 -114.64170477 7.30788958 -50.83325195 1.77001953 C-50.09283346 1.70549465 -49.35241497 1.64096977 -48.58955956 1.57448959 C-32.39308377 0.19689001 -16.24739348 -0.07275984 0 0 Z " fill="#5F6368" transform="translate(5186.071533203125,453.60888671875)"/>
<path d="M0 0 C0.86061035 0.26893066 1.7212207 0.53786133 2.60791016 0.81494141 C45.90269524 14.61088247 87.29801094 38.14504416 120.78125 68.96484375 C122.77699099 70.7954442 124.81230611 72.55836483 126.875 74.3125 C136.17209686 82.445112 144.35197492 91.31506371 152 101 C152.93140122 102.13201587 153.86511786 103.26212946 154.80078125 104.390625 C162.5688406 113.81953849 169.44423659 123.69606549 176 134 C176.39783691 134.62310059 176.79567383 135.24620117 177.20556641 135.88818359 C200.1560121 172.1492909 215.79711429 212.18639293 224.25 254.1875 C224.48412598 255.31728271 224.71825195 256.44706543 224.95947266 257.61108398 C229.35503616 280.56411794 230.50497827 303.84191807 230.39111328 327.15942383 C230.37498712 331.06562095 230.3911125 334.97078618 230.41015625 338.87695312 C230.4812125 422.96906824 201.02548472 508.46032141 143.24609375 570.56640625 C141.36544087 572.60405276 139.58355404 574.68092606 137.8125 576.8125 C129.04176636 586.88951311 118.52266165 595.82513652 108 604 C107.43796875 604.43989258 106.8759375 604.87978516 106.296875 605.33300781 C48.48597113 650.38968984 -22.70060763 676.03223108 -96 678 C-96.68416992 678.02191406 -97.36833984 678.04382812 -98.07324219 678.06640625 C-122.12867517 678.75600299 -146.37826058 676.44972772 -170 672 C-171.01352539 671.80986328 -172.02705078 671.61972656 -173.07128906 671.42382812 C-200.13100221 666.15862078 -227.29342363 657.25652614 -252 645 C-253.35991174 644.34995895 -254.72058067 643.7014994 -256.08203125 643.0546875 C-283.65387323 629.79279274 -309.23882192 612.41741222 -332 592 C-332.81476807 591.27780273 -332.81476807 591.27780273 -333.64599609 590.54101562 C-346.16704001 579.41944801 -357.43133688 567.33013258 -367.51953125 553.96044922 C-368.55581021 552.58819987 -369.59798027 551.22038856 -370.64453125 549.85595703 C-417.97157646 488.0930947 -440.76954124 412.59726569 -440.39111328 335.22753906 C-440.37402241 331.70539477 -440.3842102 328.18393112 -440.40143585 324.66180992 C-440.7284108 245.65437941 -416.08788868 167.72803183 -366 106 C-365.2678125 105.07703125 -364.535625 104.1540625 -363.78125 103.203125 C-351.64363649 88.07384619 -338.23377477 74.01820226 -323 62 C-321.84476202 61.05663387 -320.6912029 60.11120923 -319.5390625 59.1640625 C-245.19367752 -1.68732888 -144.64496521 -27.60028487 0 0 Z M-251 157 C-251.65871094 157.61617187 -252.31742188 158.23234375 -252.99609375 158.8671875 C-266.64839123 172.04654165 -277.73638519 188.51195582 -287 205 C-287.60110596 206.05864258 -287.60110596 206.05864258 -288.21435547 207.13867188 C-306.52316999 239.65272437 -316.9991226 276.56403555 -317.23828125 313.93359375 C-317.246353 315.16497574 -317.25442474 316.39635773 -317.26274109 317.66505432 C-317.27651886 320.26960879 -317.28726896 322.87418083 -317.29516602 325.47875977 C-317.30658898 328.08753932 -317.32688308 330.69629735 -317.35668945 333.30493164 C-318.00484566 390.22318561 -301.03647959 443.60038094 -265 488 C-264.52755859 488.58281738 -264.05511719 489.16563477 -263.56835938 489.76611328 C-260.75682541 493.21617517 -257.88967768 496.61494901 -255 500 C-254.4225 500.70125 -253.845 501.4025 -253.25 502.125 C-238.60861852 519.58203177 -219.1515716 532.74201193 -199 543 C-198.32324219 543.35255859 -197.64648438 543.70511719 -196.94921875 544.06835938 C-176.86720057 554.46031635 -155.25947506 560.43774056 -133 564 C-132.30495361 564.11126221 -131.60990723 564.22252441 -130.89379883 564.3371582 C-81.98619751 570.90648425 -27.2611303 558.06073357 12.48535156 528.50610352 C13.99978281 527.34980221 15.5002941 526.17533694 17 525 C18.30904297 524.00419922 18.30904297 524.00419922 19.64453125 522.98828125 C67.07772759 486.16219338 97.59527112 429.85941549 105.25 370.5 C106.78201885 357.38591864 107.20870735 344.25201895 107.1875 331.0625 C107.18656342 330.301651 107.18562683 329.540802 107.18466187 328.75689697 C107.0362949 272.75311664 91.17551681 219.12695058 56 175 C55.55043945 174.4332959 55.10087891 173.8665918 54.63769531 173.28271484 C21.34099946 131.6803569 -25.5463941 106.12708125 -78 98 C-78.65959717 97.8961499 -79.31919434 97.7922998 -79.9987793 97.68530273 C-143.99424619 89.11193197 -204.87821775 113.59907109 -251 157 Z " fill="#5F6368" transform="translate(6339,770)"/>
<path d="M0 0 C40.59 0 81.18 0 123 0 C123.01981934 11.73344971 123.03963867 23.46689941 123.06005859 35.5559082 C123.12499141 73.18285239 123.19953213 110.80977213 123.28005161 148.43668606 C123.29256911 154.2902287 123.3050021 160.14377152 123.31738281 165.99731445 C123.31984881 167.16255306 123.3223148 168.32779167 123.32485552 169.52834054 C123.3644805 188.34708414 123.39727302 207.16583367 123.42749982 225.98459444 C123.45871432 245.32264472 123.4973657 264.66067005 123.54279006 283.99869221 C123.57054437 295.91234908 123.59263336 307.82598788 123.60726251 319.73966821 C123.61787916 327.93113972 123.63577869 336.12257607 123.65916704 344.31402097 C123.67241344 349.02612062 123.68267827 353.73817143 123.68421364 358.45029068 C123.70959249 415.9555937 127.28927588 477.66821756 169.75 521.1875 C187.67384647 538.90323214 210.83724074 549.16502611 235.125 554.8125 C235.95781494 555.00739014 236.79062988 555.20228027 237.64868164 555.40307617 C251.93980718 558.51174877 266.22830256 559.35234396 280.81079102 559.31567383 C283.43222455 559.31250637 286.05253205 559.336121 288.67382812 559.36132812 C329.20901633 559.51342347 366.04658801 543.12911556 395 515 C401.2578479 508.52729037 406.67238685 501.24450132 412 494 C412.40089844 493.45553223 412.80179688 492.91106445 413.21484375 492.35009766 C429.34105591 470.1104649 440.51948357 444.38777119 447.375 417.875 C447.60179443 417.00738037 447.82858887 416.13976074 448.06225586 415.24584961 C453.34331082 393.33652749 453.45152595 371.36597678 453.43273985 348.98204827 C453.43210875 344.28570401 453.44880295 339.58941459 453.46325684 334.89309692 C453.4859139 326.78162843 453.49790549 318.67020251 453.50238609 310.55870438 C453.5088799 298.83124995 453.53187354 287.10387206 453.55872939 275.37644868 C453.60187405 256.34358728 453.63191092 237.31072913 453.65356445 218.27783203 C453.67461124 199.80320645 453.70191844 181.32860737 453.73754883 162.85400391 C453.73974765 161.71277752 453.74194648 160.57155114 453.74421193 159.39574213 C453.75528251 153.66981253 453.76647514 147.94388317 453.77772844 142.21795392 C453.87073887 94.81198533 453.93997726 47.40602408 454 0 C494.59 0 535.18 0 577 0 C577 214.83 577 429.66 577 651 C537.73 651 498.46 651 458 651 C458 621.3 458 591.6 458 561 C454.76147808 564.23852192 452.66698339 566.83972437 450.25 570.625 C444.57386771 579.27034752 438.11272245 587.01246933 431.140625 594.63671875 C429.27147093 596.70029213 427.47676638 598.80514613 425.6875 600.9375 C386.39561704 645.68907512 322.36021562 671.13483565 264 675 C260.13390763 675.15266193 256.2711726 675.20866197 252.40234375 675.23828125 C251.33759323 675.2480751 250.27284271 675.25786896 249.17582703 675.26795959 C204.73919632 675.59311209 204.73919632 675.59311209 185 671 C184.05785645 670.78569336 183.11571289 670.57138672 182.14501953 670.35058594 C127.0944718 657.43621807 76.21684903 625.33642748 45.87109375 577.07421875 C42.80954943 572.1084366 39.87952309 567.07311018 37 562 C36.56059082 561.23107422 36.12118164 560.46214844 35.66845703 559.66992188 C28.11478229 546.31870882 22.355925 532.35766307 17 518 C16.54367187 516.78014404 16.54367187 516.78014404 16.078125 515.53564453 C4.71527141 484.65628593 -0.17929446 451.75300915 -0.12025452 418.96673584 C-0.1206912 417.15384126 -0.12156789 415.34094675 -0.12284368 413.52805257 C-0.12506958 408.57266887 -0.12109354 403.61730696 -0.11606562 398.66192603 C-0.11173385 393.30830371 -0.11320948 387.95468254 -0.1139679 382.60105896 C-0.1144914 373.33424337 -0.11136268 364.06743484 -0.10573006 354.80062103 C-0.09759161 341.40248033 -0.09499743 328.00434303 -0.09374207 314.60620013 C-0.09155523 292.86685935 -0.08490513 271.12752233 -0.07543945 249.38818359 C-0.06625581 228.27457701 -0.05917963 207.16097146 -0.05493164 186.04736328 C-0.05466892 184.7451989 -0.05440619 183.44303451 -0.05413551 182.1014106 C-0.05283044 175.56861908 -0.05156674 169.03582755 -0.05032361 162.50303602 C-0.03996247 108.33535401 -0.02153034 54.16767895 0 0 Z " fill="#5F6368" transform="translate(6667,775)"/>
<path d="M0 0 C50.82 0 101.64 0 154 0 C154 339.9 154 679.8 154 1030 C103.18 1030 52.36 1030 0 1030 C0 690.1 0 350.2 0 0 Z " fill="#5F6368" transform="translate(3505,396)"/>
<path d="M0 0 C40.59 0 81.18 0 123 0 C123 313.83 123 627.66 123 951 C82.41 951 41.82 951 0 951 C0 637.17 0 323.34 0 0 Z " fill="#5F6368" transform="translate(5672,475)"/>
</svg>
