<?xml version="1.0" encoding="UTF-8"?>
<!DOCTYPE svg PUBLIC "-//W3C//DTD SVG 1.1//EN" "http://www.w3.org/Graphics/SVG/1.1/DTD/svg11.dtd">
<svg xmlns="http://www.w3.org/2000/svg" version="1.1" width="512px" height="80px" style="shape-rendering:geometricPrecision; text-rendering:geometricPrecision; image-rendering:optimizeQuality; fill-rule:evenodd; clip-rule:evenodd" xmlns:xlink="http://www.w3.org/1999/xlink">
<g><path style="opacity:0.958" fill="#ea4334" d="M 41.5,-0.5 C 46.1667,-0.5 50.8333,-0.5 55.5,-0.5C 61.8531,1.17686 67.5198,4.17686 72.5,8.5C 68.8333,12.5 65.1667,16.5 61.5,20.5C 55.2435,16.5513 48.5768,15.7179 41.5,18C 38.8936,18.7918 36.8936,20.2918 35.5,22.5C 27.6795,21.5746 20.3461,22.9079 13.5,26.5C 17.6323,12.0332 26.9656,3.03325 41.5,-0.5 Z"/></g>
<g><path style="opacity:0.978" fill="#4285f3" d="M 72.5,8.5 C 78.0652,12.9153 81.8985,18.582 84,25.5C 95.2914,34.998 98.2914,46.6647 93,60.5C 89.5524,67.4781 84.0524,71.9781 76.5,74C 67.0332,75.6223 57.6999,75.7889 48.5,74.5C 48.5,68.8333 48.5,63.1667 48.5,57.5C 56.5069,57.6664 64.5069,57.4997 72.5,57C 77.8683,53.7681 79.3683,49.2681 77,43.5C 75.1588,40.8221 72.6588,39.1555 69.5,38.5C 68.4436,31.7257 65.7769,25.7257 61.5,20.5C 65.1667,16.5 68.8333,12.5 72.5,8.5 Z"/></g>
<g><path style="opacity:0.932" fill="#5e6267" d="M 142.5,10.5 C 152.137,8.88069 160.47,11.3807 167.5,18C 165.65,20.0176 163.65,21.8509 161.5,23.5C 151.4,16.2055 142.233,17.2055 134,26.5C 127.79,38.5009 130.624,47.6676 142.5,54C 153.415,57.0422 161.081,53.3755 165.5,43C 159.843,42.5006 154.176,42.3339 148.5,42.5C 148.5,39.8333 148.5,37.1667 148.5,34.5C 156.833,34.5 165.167,34.5 173.5,34.5C 173.896,55.6022 163.563,65.1022 142.5,63C 126.027,57.2283 119.527,45.7283 123,28.5C 126.567,19.1629 133.067,13.1629 142.5,10.5 Z"/></g>
<g><path style="opacity:0.913" fill="#5f6267" d="M 286.5,12.5 C 289.167,12.5 291.833,12.5 294.5,12.5C 294.5,29.1667 294.5,45.8333 294.5,62.5C 291.833,62.5 289.167,62.5 286.5,62.5C 286.5,45.8333 286.5,29.1667 286.5,12.5 Z"/></g>
<g><path style="opacity:0.913" fill="#5e6267" d="M 360.5,15.5 C 365.511,15.3341 370.511,15.5007 375.5,16C 378.759,17.2106 381.592,19.0439 384,21.5C 384.417,24.2842 383.25,26.2842 380.5,27.5C 370.708,19.0351 361.542,19.7018 353,29.5C 348.577,38.7911 350.077,46.9578 357.5,54C 366.276,58.7485 374.276,57.5819 381.5,50.5C 383.316,51.8149 384.983,53.3149 386.5,55C 377.611,63.8348 367.277,65.8348 355.5,61C 344.428,53.1186 340.928,42.6186 345,29.5C 348.492,22.8344 353.659,18.1678 360.5,15.5 Z"/></g>
<g><path style="opacity:0.986" fill="#5e6367" d="M 390.5,15.5 C 392.833,15.5 395.167,15.5 397.5,15.5C 397.5,31.1667 397.5,46.8333 397.5,62.5C 395.167,62.5 392.833,62.5 390.5,62.5C 390.5,46.8333 390.5,31.1667 390.5,15.5 Z"/></g>
<g><path style="opacity:0.926" fill="#5e6267" d="M 496.5,16.5 C 498.833,16.5 501.167,16.5 503.5,16.5C 503.5,31.8333 503.5,47.1667 503.5,62.5C 501.167,62.5 498.833,62.5 496.5,62.5C 496.557,58.8669 495.557,58.7002 493.5,62C 479.859,65.8394 472.192,60.6727 470.5,46.5C 472.192,32.3273 479.859,27.1606 493.5,31C 494.333,31.8333 495.167,32.6667 496,33.5C 496.499,27.8431 496.666,22.1764 496.5,16.5 Z M 485.5,35.5 C 496.423,38.0216 499.257,44.3549 494,54.5C 485.012,59.4365 479.512,56.7698 477.5,46.5C 478.016,41.0887 480.682,37.4221 485.5,35.5 Z"/></g>
<g><path style="opacity:0.973" fill="#fbbb05" d="M 35.5,22.5 C 41.4134,23.9475 46.0801,27.1142 49.5,32C 46.0314,36.6361 42.0314,40.8027 37.5,44.5C 32.6828,37.5815 27.1828,36.9148 21,42.5C 17.8814,48.3668 19.0481,53.3668 24.5,57.5C 20.1667,61.1667 16.1667,65.1667 12.5,69.5C 5.82282,63.981 2.15616,56.8144 1.5,48C 2.00982,38.8074 6.00982,31.6407 13.5,26.5C 20.3461,22.9079 27.6795,21.5746 35.5,22.5 Z"/></g>
<g><path style="opacity:0.929" fill="#5e6267" d="M 186.5,29.5 C 205.73,28.3192 212.897,36.9859 208,55.5C 200.392,64.2439 191.559,65.7439 181.5,60C 175.014,53.0196 173.847,45.1863 178,36.5C 180.441,33.5464 183.275,31.2131 186.5,29.5 Z M 190.5,36.5 C 199.014,36.843 202.514,41.1763 201,49.5C 198.598,55.092 194.431,56.9253 188.5,55C 181.415,47.9394 182.082,41.7727 190.5,36.5 Z"/></g>
<g><path style="opacity:0.933" fill="#5e6267" d="M 223.5,29.5 C 243.394,28.629 250.228,37.629 244,56.5C 237.818,63.4426 230.318,65.2759 221.5,62C 212.515,55.9753 210.015,47.8086 214,37.5C 216.695,34.2413 219.861,31.5746 223.5,29.5 Z M 227.5,36.5 C 235.738,36.9657 239.238,41.2991 238,49.5C 235.549,55.0891 231.383,56.9224 225.5,55C 218.487,47.926 219.154,41.7594 227.5,36.5 Z"/></g>
<g><path style="opacity:0.911" fill="#5e6267" d="M 264.5,28.5 C 267.643,29.0366 270.643,30.0366 273.5,31.5C 276.421,30.5934 279.421,30.2601 282.5,30.5C 282.667,42.1714 282.5,53.8381 282,65.5C 278.753,76.2118 271.586,80.3785 260.5,78C 254.558,76.5887 251.558,73.0887 251.5,67.5C 255.746,64.4477 259.079,65.281 261.5,70C 269.93,72.5779 274.097,69.4112 274,60.5C 260.089,66.2881 251.589,61.6214 248.5,46.5C 249.354,36.3213 254.688,30.3213 264.5,28.5 Z M 264.5,36.5 C 273.858,38.2116 276.692,43.5449 273,52.5C 268.793,56.8245 264.46,57.1578 260,53.5C 255.593,46.0769 257.093,40.4102 264.5,36.5 Z"/></g>
<g><path style="opacity:0.936" fill="#5e6267" d="M 307.5,29.5 C 318.367,27.263 325.7,31.263 329.5,41.5C 322.369,45.2743 315.035,48.7743 307.5,52C 312.032,57.5475 316.699,57.5475 321.5,52C 330.445,53.9142 330.779,57.2475 322.5,62C 311.49,65.8893 303.323,62.7226 298,52.5C 295.461,42.246 298.627,34.5794 307.5,29.5 Z M 311.5,36.5 C 313.199,36.3398 314.866,36.5065 316.5,37C 317.956,37.4226 318.456,38.2559 318,39.5C 314.24,41.2956 310.407,42.9623 306.5,44.5C 305.592,43.21 305.759,41.8767 307,40.5C 308.397,38.9297 309.897,37.5964 311.5,36.5 Z"/></g>
<g><path style="opacity:0.907" fill="#5e6267" d="M 413.5,29.5 C 432.044,29.9064 438.211,38.9064 432,56.5C 425.315,63.8537 417.482,65.3537 408.5,61C 401.915,55.6427 399.749,48.8094 402,40.5C 404.437,35.2262 408.271,31.5595 413.5,29.5 Z M 416.5,35.5 C 426.416,37.329 429.583,42.9956 426,52.5C 420.624,59.0169 415.29,59.0169 410,52.5C 406.634,44.584 408.8,38.9173 416.5,35.5 Z"/></g>
<g><path style="opacity:0.933" fill="#5f6267" d="M 438.5,30.5 C 440.833,30.5 443.167,30.5 445.5,30.5C 445.334,38.1739 445.5,45.8406 446,53.5C 450.696,59.0843 455.03,58.751 459,52.5C 460.348,45.2392 460.848,37.9059 460.5,30.5C 462.5,30.5 464.5,30.5 466.5,30.5C 466.5,41.1667 466.5,51.8333 466.5,62.5C 464.5,62.5 462.5,62.5 460.5,62.5C 460.649,61.448 460.483,60.448 460,59.5C 455.909,63.3049 451.076,64.4716 445.5,63C 443.376,61.8783 441.543,60.3783 440,58.5C 438.583,49.2479 438.083,39.9146 438.5,30.5 Z"/></g>
<g><path style="opacity:0.987" fill="#35a852" d="M 24.5,57.5 C 32.5,57.5 40.5,57.5 48.5,57.5C 48.5,63.1667 48.5,68.8333 48.5,74.5C 39.4938,74.6664 30.4938,74.4998 21.5,74C 17.9647,73.3367 14.9647,71.8367 12.5,69.5C 16.1667,65.1667 20.1667,61.1667 24.5,57.5 Z"/></g>
</svg>
